<svg width="14" height="14" viewBox="0 0 14 14" fill="none" xmlns="http://www.w3.org/2000/svg">
<path d="M7.03797 11.4546C6.16403 11.4546 5.37494 11.2594 4.6707 10.8691C3.97494 10.4788 3.42342 9.94003 3.01615 9.25276C2.61736 8.56549 2.41797 7.79336 2.41797 6.93639C2.41797 6.07942 2.61736 5.3073 3.01615 4.62003C3.42342 3.93276 3.97494 3.39397 4.6707 3.00367C5.37494 2.61336 6.16403 2.41821 7.03797 2.41821C7.68282 2.41821 8.27676 2.52427 8.81979 2.7364C9.36282 2.94003 9.82524 3.24549 10.2071 3.65276L9.79979 4.07276C9.08706 3.36852 8.17494 3.01639 7.06342 3.01639C6.31676 3.01639 5.63797 3.18609 5.02706 3.52549C4.41615 3.86488 3.93676 4.33579 3.58888 4.93821C3.241 5.53215 3.06706 6.19821 3.06706 6.93639C3.06706 7.67458 3.241 8.34488 3.58888 8.9473C3.93676 9.54124 4.41615 10.0079 5.02706 10.3473C5.63797 10.6867 6.31676 10.8564 7.06342 10.8564C8.16645 10.8564 9.07857 10.5 9.79979 9.7873L10.2071 10.2073C9.82524 10.6146 9.35858 10.9243 8.80706 11.1364C8.26403 11.3485 7.67433 11.4546 7.03797 11.4546Z" fill="black"/>
<path fill-rule="evenodd" clip-rule="evenodd" d="M14 7C14 10.866 10.866 14 7 14C3.13401 14 0 10.866 0 7C0 3.13401 3.13401 0 7 0C10.866 0 14 3.13401 14 7ZM7 13.3636C10.5145 13.3636 13.3636 10.5145 13.3636 7C13.3636 3.48546 10.5145 0.636364 7 0.636364C3.48546 0.636364 0.636364 3.48546 0.636364 7C0.636364 10.5145 3.48546 13.3636 7 13.3636Z" fill="black"/>
</svg>
