<svg width="330" height="368" viewBox="0 0 330 368" fill="none" xmlns="http://www.w3.org/2000/svg">
<g clip-path="url(#clip0)">
<path d="M202.598 37.8117C202.598 37.8117 219.234 36.824 223.182 36.1186C227.271 35.272 228.68 32.168 231.782 35.272C234.884 38.376 237.845 55.8713 241.51 59.5397C245.176 63.208 247.432 72.379 247.432 75.483C247.432 78.587 246.163 85.2183 243.061 87.4757C238.127 91.2852 225.015 91.2852 225.015 91.2852L202.598 37.8117Z" fill="#F5FAFA" stroke="#545580" stroke-width="3.84946" stroke-miterlimit="10" stroke-linecap="round" stroke-linejoin="round"/>
<path d="M4.7554 319.148C5.24268 311.468 7.68295 304.039 11.845 297.566L19.3026 285.968C24.704 277.567 32.7269 271.176 42.1675 267.916C51.6289 264.65 62.4806 261.018 63.9548 261.018C66.7745 261.018 66.4926 266.379 71.4271 264.404C76.3617 262.57 97.8453 261.018 97.8453 261.018L230.092 210.366C230.092 210.366 266.467 215.445 278.591 227.579C290.575 239.572 315.812 309.694 315.812 309.694L327.655 369.658H164.603H1.55078L4.7554 319.148Z" fill="#27B2B2"/>
<path d="M327.655 369.658L315.812 309.694C315.812 309.694 290.575 239.572 278.591 227.579C266.467 215.445 230.092 210.366 230.092 210.366L97.8453 261.018C97.8453 261.018 76.3617 262.57 71.4271 264.404C66.4926 266.379 66.7745 261.018 63.9548 261.018C62.4806 261.018 51.6289 264.65 42.1675 267.916C32.7269 271.176 24.704 277.567 19.3026 285.968L11.845 297.566C7.68295 304.039 5.24268 311.468 4.7554 319.148L1.55078 369.658" stroke="#545580" stroke-width="3.84946" stroke-miterlimit="10" stroke-linecap="round"/>
<path d="M144.371 317.737C156.919 323.522 187.372 314.351 198.51 306.168" stroke="#545580" stroke-width="3.84946" stroke-miterlimit="10" stroke-linecap="round" stroke-linejoin="round"/>
<path d="M73.4531 274.281L97.562 332.834C99.6768 338.478 102.92 338.054 108.418 335.656L148.318 319.007L101.51 302.499L73.4531 274.281Z" fill="#2A9691"/>
<path d="M217.265 231.954L210.215 278.373C207.255 284.439 210.356 295.162 216.701 297.984L250.679 305.462C252.794 306.026 253.922 302.64 253.358 301.37L234.465 266.662C234.324 266.521 234.324 266.239 234.324 265.957L225.724 233.364C225.724 231.954 217.97 230.543 217.265 231.954Z" fill="#2A9691"/>
<path d="M86.422 235.058C86.422 235.058 87.5499 201.619 77.3988 173.965C64.8509 139.962 51.457 107.37 51.457 91.568C51.457 62.9265 69.2215 17.9184 107.288 7.05441C145.355 -3.80961 181.307 -0.000144601 205.697 24.4086C230.088 48.8174 236.574 69.981 242.213 92.4145C247.853 114.848 221.065 264.546 221.065 264.546C221.065 264.546 207.671 298.972 198.225 306.026C187.087 314.21 156.634 323.381 144.086 317.596C126.18 309.272 97.842 253.682 97.842 253.682L86.422 235.058Z" fill="#FCDBB9" stroke="#545580" stroke-width="3.84946" stroke-miterlimit="10" stroke-linecap="round" stroke-linejoin="round"/>
<path d="M223.321 248.884C233.472 312.94 159.031 317.737 159.031 317.737C159.031 317.737 155.224 306.45 148.316 290.083C143.804 279.501 128.296 265.11 128.296 253.823C128.296 245.498 112.505 239.29 100.803 217.28C95.5865 207.404 91.2159 179.609 91.7798 172.554C92.0618 168.462 77.822 141.514 72.0416 123.313C67.9529 110.615 55.687 115.553 54.1361 103.278C51.8803 86.3475 69.0808 90.1569 75.2843 94.5308C81.4877 98.7635 90.088 138.269 105.879 165.923C118.708 188.215 139.152 199.926 144.65 201.196C155.365 203.735 169.041 191.319 176.09 191.319C202.173 191.601 218.246 217.562 223.321 248.884Z" fill="#D2A475"/>
<path d="M243.064 306.167C233.336 337.771 225.017 350.893 216.981 350.893C191.039 350.893 159.035 317.736 159.035 317.736C179.619 319.571 230.798 290.083 230.093 274.28C229.388 257.349 252.369 275.832 243.064 306.167Z" fill="#2A9691"/>
<path d="M148.176 96.3645C163.36 96.3645 175.669 93.9009 175.669 90.8619C175.669 87.823 163.36 85.3594 148.176 85.3594C132.992 85.3594 120.684 87.823 120.684 90.8619C120.684 93.9009 132.992 96.3645 148.176 96.3645Z" fill="#D2A475"/>
<path d="M230.232 74.0723C230.937 77.0352 228.822 80.5625 221.35 82.2556C213.878 83.9487 207.392 83.1021 206.687 80.1392C205.982 77.1763 211.34 73.3668 218.671 71.5326C226.003 69.6985 229.527 71.1094 230.232 74.0723Z" fill="#D2A475"/>
<path d="M182.438 314.069L220.222 273.011L240.101 263.417C240.101 263.417 223.747 285.145 215.429 293.469C207.11 301.794 182.438 314.069 182.438 314.069Z" fill="#CDCDD3" stroke="#545580" stroke-width="3.84946" stroke-miterlimit="10" stroke-linecap="round" stroke-linejoin="round"/>
<path d="M220.224 273.011L252.792 296.856C252.792 296.856 248.139 270.189 243.064 256.08C237.988 241.971 223.326 229.979 223.326 229.979H198.512L220.224 273.011Z" fill="#F5FAFA" stroke="#545580" stroke-width="3.84946" stroke-miterlimit="10" stroke-linecap="round" stroke-linejoin="round"/>
<path d="M115.188 230.119C107.152 224.617 102.5 201.76 102.5 193.577C102.5 185.393 93.8993 176.787 93.8993 176.787C93.8993 176.787 96.8601 152.942 96.8601 148.569C96.8601 144.195 76.5578 133.754 80.2235 124.301C83.8892 114.848 81.3514 106.947 81.3514 106.947L76.8398 100.315L70.7773 102.432L75.9939 91.1445L94.7452 110.051C94.7452 110.051 106.165 118.798 106.165 130.227C106.165 141.655 110.818 160.42 115.047 164.653C119.277 168.886 123.93 168.886 123.93 168.886L130.133 183.136L165.803 232.236C166.085 232.236 125.763 237.315 115.188 230.119Z" fill="#F5FAFA" stroke="#545580" stroke-width="3.84946" stroke-miterlimit="10" stroke-linecap="round" stroke-linejoin="round"/>
<path d="M116.879 218.267L137.04 233.223C137.04 233.223 147.332 247.473 143.666 253.822C139.86 260.171 155.791 263.275 155.791 263.275C155.791 263.275 169.608 262.57 174.966 275.691C180.323 288.813 201.189 277.949 206.829 284.439C212.468 290.929 217.685 277.949 224.875 270.894C232.065 263.698 234.321 208.25 234.321 201.901C234.321 195.552 243.063 194.141 243.063 194.141C243.063 194.141 237.282 188.92 240.807 179.185C244.331 169.309 240.807 162.254 240.807 162.254L237.423 168.462C237.423 168.462 235.308 166.346 234.321 165.358C233.334 164.37 231.079 167.051 231.079 167.051V171.707C231.079 171.707 231.079 173.541 226.426 172.413C221.773 171.284 223.606 164.935 223.606 164.935C223.606 164.935 218.672 169.873 215.429 166.628C212.186 163.383 215.429 159.855 215.429 159.855C215.429 159.855 214.442 160.843 209.789 160.843C205.137 160.843 204.714 167.757 202.035 170.437C199.356 173.118 194.14 169.873 192.025 172.13C189.769 174.388 188.5 178.056 186.667 179.89C184.835 181.725 183.143 179.89 178.631 179.89C174.12 179.89 170.454 193.999 170.454 193.999L171.441 187.368C171.441 187.368 167.211 186.239 163.405 186.239C159.598 186.239 157.906 191.742 155.65 193.999C153.394 196.257 144.935 193.999 144.935 193.999C144.935 193.999 143.807 187.933 138.873 187.933C133.938 187.933 124.633 178.338 124.633 178.338C124.633 178.338 125.62 186.239 122.8 189.061C119.98 191.883 115.469 190.049 115.469 190.049C115.469 190.049 115.469 197.386 121.531 201.336C127.594 205.287 127.876 209.802 127.876 209.802" fill="#F5FAFA"/>
<path d="M116.879 218.267L137.04 233.223C137.04 233.223 147.332 247.473 143.666 253.822C139.86 260.171 155.791 263.275 155.791 263.275C155.791 263.275 169.608 262.57 174.966 275.691C180.323 288.813 201.189 277.949 206.829 284.439C212.468 290.929 217.685 277.949 224.875 270.894C232.066 263.698 234.321 208.25 234.321 201.901C234.321 195.552 243.063 194.141 243.063 194.141C243.063 194.141 237.282 188.92 240.807 179.185C244.331 169.309 240.807 162.254 240.807 162.254L237.423 168.462C237.423 168.462 235.308 166.346 234.321 165.358C233.334 164.37 231.079 167.051 231.079 167.051V171.707C231.079 171.707 231.079 173.541 226.426 172.413C221.773 171.284 223.606 164.935 223.606 164.935C223.606 164.935 218.672 169.873 215.429 166.628C212.186 163.383 215.429 159.855 215.429 159.855C215.429 159.855 214.442 160.843 209.789 160.843C205.137 160.843 204.714 167.757 202.035 170.437C199.356 173.118 194.14 169.873 192.025 172.13C189.769 174.388 188.5 178.056 186.667 179.89C184.835 181.725 183.143 179.89 178.631 179.89C174.12 179.89 170.454 193.999 170.454 193.999L171.441 187.368C171.441 187.368 167.211 186.239 163.405 186.239C159.598 186.239 157.906 191.742 155.65 193.999C153.394 196.257 144.935 193.999 144.935 193.999C144.935 193.999 143.807 187.933 138.873 187.933C133.938 187.933 124.633 178.338 124.633 178.338C124.633 178.338 125.62 186.239 122.8 189.061C119.98 191.883 115.469 190.049 115.469 190.049C115.469 190.049 115.469 197.386 121.531 201.336C127.594 205.287 127.876 209.802 127.876 209.802" stroke="#545580" stroke-width="3.84946" stroke-miterlimit="10" stroke-linecap="round" stroke-linejoin="round"/>
<path d="M97.1425 117.246C98.6933 113.719 91.7849 108.216 94.0407 91.2855C96.2965 74.3546 107.435 56.5771 107.435 56.5771L95.3096 46.8418C95.3096 46.8418 82.1978 55.3073 78.1091 55.3073C74.0205 55.3073 74.0205 51.78 74.0205 51.78C74.0205 51.78 67.676 55.3073 63.4464 55.3073C59.0758 55.3073 49.3477 64.0549 49.3477 79.0106C49.3477 93.9662 55.5511 100.315 55.5511 100.315C55.5511 100.315 58.6528 96.9291 62.1775 96.9291C65.7022 96.9291 70.9188 109.063 70.9188 109.063C70.9188 109.063 80.3649 94.2484 80.9289 100.598" fill="#F5FAFA"/>
<path d="M97.1425 117.246C98.6933 113.719 91.7849 108.216 94.0407 91.2855C96.2965 74.3546 107.435 56.5771 107.435 56.5771L95.3096 46.8418C95.3096 46.8418 82.1978 55.3073 78.1091 55.3073C74.0205 55.3073 74.0205 51.78 74.0205 51.78C74.0205 51.78 67.676 55.3073 63.4464 55.3073C59.0758 55.3073 49.3477 64.0549 49.3477 79.0106C49.3477 93.9662 55.5511 100.315 55.5511 100.315C55.5511 100.315 58.6528 96.9291 62.1775 96.9291C65.7022 96.9291 70.9188 109.063 70.9188 109.063C70.9188 109.063 80.3649 94.2484 80.9289 100.598" stroke="#545580" stroke-width="3.84946" stroke-miterlimit="10" stroke-linecap="round"/>
<path d="M115.188 91.2847C115.188 91.2847 124.352 80.2797 128.581 80.2797C132.811 80.2797 166.084 81.2673 166.084 81.2673C166.084 81.2673 176.094 70.9676 178.068 72.8018C179.901 74.636 182.016 86.2055 173.133 89.8738C164.251 93.6833 115.188 91.2847 115.188 91.2847Z" fill="#F5FAFA" stroke="#545580" stroke-width="3.84946" stroke-miterlimit="10"/>
<path d="M226.851 65.8896L214.021 73.6497L205.844 69.8402C205.844 69.8402 206.126 82.2562 209.227 82.2562C212.329 82.2562 230.517 77.318 230.517 74.0729C230.235 70.9689 226.851 65.8896 226.851 65.8896Z" fill="#F5FAFA" stroke="#545580" stroke-width="3.84946" stroke-miterlimit="10"/>
<path d="M216.418 100.598V108.781C216.418 108.781 229.812 105.254 233.337 105.818C236.72 106.382 238.13 108.781 238.13 108.781" fill="#FCDBB9"/>
<path d="M216.418 100.598V108.781C216.418 108.781 229.812 105.254 233.337 105.818C236.72 106.382 238.13 108.781 238.13 108.781" stroke="#545580" stroke-width="3.84946" stroke-miterlimit="10" stroke-linecap="round" stroke-linejoin="round"/>
<path d="M174.541 104.688C174.541 104.688 177.361 110.191 177.361 113.295C177.361 116.399 175.951 117.81 175.951 117.81C175.951 117.81 170.311 115.694 162.416 117.81C154.38 119.926 135.91 129.944 135.91 129.944" fill="#FCDBB9"/>
<path d="M174.541 104.688C174.541 104.688 177.361 110.191 177.361 113.295C177.361 116.399 175.951 117.81 175.951 117.81C175.951 117.81 170.311 115.694 162.416 117.81C154.38 119.926 135.91 129.944 135.91 129.944" stroke="#545580" stroke-width="3.84946" stroke-miterlimit="10" stroke-linecap="round" stroke-linejoin="round"/>
<path d="M159.034 131.496C162.227 131.496 164.815 128.906 164.815 125.711C164.815 122.517 162.227 119.927 159.034 119.927C155.842 119.927 153.254 122.517 153.254 125.711C153.254 128.906 155.842 131.496 159.034 131.496Z" fill="#545580" stroke="#545580" stroke-width="3.84946" stroke-miterlimit="10" stroke-linecap="round" stroke-linejoin="round"/>
<path d="M227.272 115.553C229.452 115.553 231.22 113.785 231.22 111.603C231.22 109.421 229.452 107.652 227.272 107.652C225.092 107.652 223.324 109.421 223.324 111.603C223.324 113.785 225.092 115.553 227.272 115.553Z" fill="#545580" stroke="#545580" stroke-width="3.84946" stroke-miterlimit="10" stroke-linecap="round" stroke-linejoin="round"/>
<path d="M194.707 154.636L214.586 152.519L216.419 145.747L194.707 154.636Z" fill="#545580" stroke="#545580" stroke-width="3.84946" stroke-miterlimit="10" stroke-linecap="round" stroke-linejoin="round"/>
<path d="M216.415 145.747L200.766 96.5059" stroke="#545580" stroke-width="3.84946" stroke-miterlimit="10" stroke-linecap="round" stroke-linejoin="round"/>
<path d="M174.595 209.677C174.595 209.677 183.591 210.848 196 206.5C208.409 202.152 214.411 195.941 214.411 195.941" fill="#F5FAFA"/>
<path d="M174.595 209.677C174.595 209.677 183.591 210.848 196 206.5C208.409 202.152 214.411 195.941 214.411 195.941" stroke="#545580" stroke-width="3.84946" stroke-miterlimit="10" stroke-linecap="round" stroke-linejoin="round"/>
<path d="M154.946 319.572L140.847 302.217L115.188 274.281L101.512 306.45L154.946 319.572Z" fill="#CDCDD3" stroke="#545580" stroke-width="3.84946" stroke-miterlimit="10" stroke-linecap="round" stroke-linejoin="round"/>
<path d="M83.0459 219.679C83.0459 219.679 92.0691 220.525 101.656 232.236C111.243 243.946 140.851 302.358 140.851 302.358L105.604 321.688L62.1797 257.632L83.0459 219.679Z" fill="#F5FAFA" stroke="#545580" stroke-width="3.84946" stroke-miterlimit="10" stroke-linecap="round" stroke-linejoin="round"/>
<path d="M135.773 327.331C135.773 327.331 159.459 338.054 190.336 321.687C213.74 309.271 241.796 281.194 234.183 290.083" stroke="#545580" stroke-width="3.84946" stroke-miterlimit="10" stroke-linecap="round" stroke-linejoin="round"/>
<path d="M198.37 306.168C187.232 314.351 156.778 323.522 144.23 317.737" stroke="#545580" stroke-width="3.84946" stroke-miterlimit="10" stroke-linecap="round" stroke-linejoin="round"/>
<path d="M58.6453 166.628C61.606 167.616 69.3603 171.425 71.7571 170.438C73.308 169.873 75.2818 167.052 76.2687 165.358L63.7208 118.093C63.7208 118.093 53.8517 107.511 51.5959 122.467C50.327 131.073 50.327 146.311 52.0189 157.316C54.6976 161.972 57.3764 166.205 58.6453 166.628Z" fill="#FCDBB9"/>
<path d="M57.7997 171.425C64.1441 171.425 76.974 183.841 76.974 167.757L76.269 165.358C75.1411 167.192 73.3083 169.873 71.7574 170.437C69.3607 171.425 61.4653 167.616 58.6456 166.628C57.3767 166.205 54.6979 161.972 52.1602 157.457C53.2881 165.499 55.1209 171.425 57.7997 171.425Z" fill="#D2A475"/>
<path d="M72.3207 177.632C69.7829 177.632 66.9632 176.362 64.1434 175.093C61.8876 174.105 59.4908 172.976 57.94 172.976C57.0941 172.976 55.9662 172.694 54.8383 171.283C49.3397 164.652 48.4938 134.599 50.3266 122.042C51.0316 116.963 52.8644 113.859 55.6842 112.871C60.0548 111.461 64.7074 116.117 65.1304 116.681C65.6943 117.386 65.6943 118.374 65.1304 119.079C64.4254 119.785 63.4385 119.644 62.8745 119.079C61.8876 118.092 58.7859 115.411 56.6711 116.117C55.2612 116.54 54.1333 118.938 53.5694 122.607C51.4545 136.575 53.1464 164.088 57.376 169.167C57.658 169.449 57.94 169.59 58.081 169.59C60.3368 169.59 62.8745 170.719 65.5533 171.848C68.796 173.258 72.3207 174.81 74.0126 173.682C75.1405 172.976 75.7044 170.86 75.7044 167.474C75.7044 166.627 76.4094 165.781 77.2553 165.781C78.1012 165.781 78.8062 166.486 78.8062 167.474C78.8062 171.989 77.8192 174.952 75.7044 176.362C74.5765 177.35 73.4486 177.632 72.3207 177.632Z" fill="#545580"/>
<path d="M66.8244 149.837C66.8244 153.929 74.2967 164.228 70.349 164.228C66.4014 164.228 57.6602 152.095 57.6602 148.003C57.6602 143.911 61.1848 141.795 65.1325 141.795C68.9392 141.795 66.8244 145.887 66.8244 149.837Z" fill="#D2A475"/>
<path d="M63.5811 131.214C63.5811 135.306 61.4663 139.68 57.5187 139.68C53.571 139.68 54.276 127.828 55.6858 124.018C57.0957 119.927 57.9416 123.172 61.7483 123.172C65.8369 123.172 63.5811 127.122 63.5811 131.214Z" fill="#D2A475"/>
<path d="M67.3941 143.63C67.6761 143.207 63.3055 144.9 65.2793 147.722C67.2531 150.543 71.9057 163.242 71.9057 163.242" fill="#FCDBB9"/>
<path d="M67.3941 143.63C67.6761 143.207 63.3055 144.9 65.2793 147.722C67.2531 150.543 71.9057 163.242 71.9057 163.242" stroke="#545580" stroke-width="3.84946" stroke-miterlimit="10" stroke-linecap="round" stroke-linejoin="round"/>
</g>
<defs>
<clipPath id="clip0">
<rect width="329.488" height="367.895" fill="white"/>
</clipPath>
</defs>
</svg>
