<svg width="426" height="395" viewBox="0 0 426 395" fill="none" xmlns="http://www.w3.org/2000/svg">
<g clip-path="url(#clip0)">
<path d="M125.523 272.479L145.104 234.761L162.211 226.31L169.425 190.241L284.642 146.339L323.803 243.005L176.845 354.305L125.523 272.479Z" fill="#FCD3A7"/>
<path d="M283.61 148.812L321.328 242.18L177.462 351.213L127.995 272.273L146.545 236.203L164.065 227.547L171.073 191.683L283.61 148.812ZM285.877 143.659L282.167 145.102L169.63 187.767L167.569 188.591L167.157 190.859L160.561 224.867L144.897 232.493L143.66 233.112L143.042 234.348L124.491 270.418L123.461 272.479L124.698 274.54L174.164 353.481L176.638 357.191L180.142 354.511L324.007 245.478L326.481 243.623L325.244 240.738L287.526 147.369L285.877 143.659Z" fill="#545580"/>
<path d="M241.977 198.073C239.916 208.791 238.885 240.738 219.511 255.372C200.136 270.006 186.945 271.449 177.464 269.388C158.502 265.472 149.845 225.692 164.067 203.638C176.021 185.5 192.304 167.981 211.266 171.897C230.435 175.607 245.893 176.431 241.977 198.073Z" fill="#D2A475"/>
<path d="M99.1384 261.762C98.7262 261.762 98.1079 261.556 97.6956 261.35C97.0773 260.731 96.8712 259.907 97.0773 259.082L136.445 140.774C136.651 140.156 137.063 139.744 137.681 139.538C137.887 139.332 138.3 139.332 138.506 139.332C138.712 139.332 139.124 139.332 139.33 139.538L178.079 157.469C178.904 157.882 179.316 158.706 179.316 159.737L165.919 228.166C165.712 228.784 165.3 229.402 164.888 229.608L99.9629 261.556C99.7567 261.556 99.5506 261.762 99.1384 261.762Z" fill="#545580"/>
<path d="M138.714 141.392L177.462 159.324L164.065 227.753L99.1401 259.7L138.714 141.392ZM138.714 137.27C138.095 137.27 137.683 137.476 137.065 137.682C136.034 138.094 135.21 139.125 134.797 140.156L95.4301 258.464C94.8117 260.112 95.4301 261.761 96.6667 262.792C97.4912 263.41 98.3156 263.822 99.3462 263.822C99.9645 263.822 100.583 263.616 101.201 263.41L166.126 231.463C167.363 230.845 168.187 229.814 168.394 228.577L181.791 160.148C182.203 158.293 181.172 156.438 179.524 155.614L140.775 137.682C139.744 137.27 139.126 137.27 138.714 137.27Z" fill="#545580"/>
<path d="M289.177 155.408C289.177 155.408 314.735 107.796 299.07 69.8716C284.024 32.9777 270.009 1.4426 218.893 4.12204C179.732 6.18316 148.609 47.1993 148.609 47.1993L132.738 99.3456C132.738 99.3456 140.777 109.033 139.334 118.514C137.891 127.995 132.738 141.805 132.738 141.805C132.738 141.805 152.319 218.066 181.999 222.188C194.16 223.837 222.397 211.676 242.183 198.073" fill="#FCD3A7"/>
<path d="M289.177 155.408C289.177 155.408 314.735 107.796 299.07 69.8716C284.024 32.9777 270.009 1.4426 218.893 4.12204C179.732 6.18316 148.609 47.1993 148.609 47.1993L132.738 99.3456C132.738 99.3456 140.777 109.033 139.334 118.514C137.891 127.995 132.738 141.805 132.738 141.805C132.738 141.805 152.319 218.066 181.999 222.188C194.16 223.837 222.397 211.676 242.183 198.073" stroke="#545580" stroke-width="4.74749" stroke-miterlimit="10" stroke-linecap="round"/>
<path d="M143.659 56.4741C144.071 61.2146 148.606 50.2907 155.82 43.0768C166.331 32.5651 186.53 31.1224 197.042 34.8324C234.554 47.4052 250.219 122.224 253.517 166.538C257.433 220.127 290.617 219.508 290.617 219.508C290.617 219.508 304.22 220.127 317.823 231.257C336.786 246.715 364.199 270.83 357.191 250.013C343.793 210.027 311.846 93.1619 304.22 74.818C288.968 38.1301 270.83 -0.000488281 219.508 -0.000488281C164.889 -0.000488281 141.186 33.1835 143.659 56.4741Z" fill="#545580"/>
<path d="M141.805 94.8109C141.805 94.8109 145.721 91.7192 151.08 89.6581C156.439 87.597 164.065 87.8031 164.065 87.8031" stroke="#545580" stroke-width="4.74749" stroke-miterlimit="10" stroke-linecap="round"/>
<path d="M207.965 93.1621C207.965 93.1621 214.973 93.9866 220.744 97.4904C226.309 101.2 230.431 106.559 230.431 106.559" stroke="#545580" stroke-width="4.74749" stroke-miterlimit="10" stroke-linecap="round"/>
<path d="M201.164 116.04C201.164 116.04 204.462 114.804 209.615 116.04C214.767 117.277 220.951 120.987 220.951 120.987" stroke="#545580" stroke-width="4.74749" stroke-miterlimit="10" stroke-linecap="round"/>
<path d="M143.043 115.629C143.043 115.629 148.402 113.155 152.936 113.155C157.471 113.155 160.562 114.392 160.562 114.392" stroke="#545580" stroke-width="4.74749" stroke-miterlimit="10" stroke-linecap="round"/>
<path d="M176.225 110.063L165.301 154.171C165.301 154.171 177.667 154.996 182.202 154.171" stroke="#545580" stroke-width="4.74749" stroke-miterlimit="10" stroke-linecap="round"/>
<path d="M151.079 120.781C149.636 120.781 148.605 119.751 148.605 118.308C148.605 116.865 149.636 115.834 151.079 115.834C152.522 115.834 153.552 116.865 153.552 118.308C153.552 119.751 152.522 120.781 151.079 120.781Z" fill="#545580"/>
<path d="M151.077 117.895C151.284 117.895 151.49 118.101 151.49 118.307C151.49 118.514 151.284 118.72 151.077 118.72C150.871 118.72 150.665 118.514 150.665 118.307C150.665 118.101 150.871 117.895 151.077 117.895ZM151.077 113.773C148.604 113.773 146.543 115.834 146.543 118.307C146.543 120.781 148.604 122.842 151.077 122.842C153.551 122.842 155.612 120.781 155.612 118.307C155.612 115.834 153.757 113.773 151.077 113.773Z" fill="#545580"/>
<path d="M209.001 123.46C207.558 123.46 206.527 122.43 206.527 120.987C206.527 119.544 207.558 118.514 209.001 118.514C210.444 118.514 211.474 119.544 211.474 120.987C211.474 122.43 210.444 123.46 209.001 123.46Z" fill="#545580"/>
<path d="M208.999 120.575C209.205 120.575 209.412 120.781 209.412 120.987C209.412 121.193 209.205 121.399 208.999 121.399C208.793 121.399 208.587 121.193 208.587 120.987C208.587 120.781 208.793 120.575 208.999 120.575ZM208.999 116.453C206.526 116.453 204.465 118.514 204.465 120.987C204.465 123.46 206.526 125.522 208.999 125.522C211.473 125.522 213.534 123.46 213.534 120.987C213.534 118.514 211.473 116.453 208.999 116.453Z" fill="#545580"/>
<path d="M171.07 181.378C171.07 181.378 176.429 183.233 186.941 182.202C197.453 181.172 207.964 177.874 207.964 177.874" stroke="#545580" stroke-width="4.74749" stroke-miterlimit="10" stroke-linecap="round"/>
<path d="M71.5205 257.639L155.614 225.692C155.614 225.692 146.133 305.663 184.676 318.854C223.219 332.045 317.618 231.463 317.618 231.463C317.618 231.463 384.398 267.12 396.971 286.289C409.543 305.457 424.177 400.681 424.177 400.681H14.8398L31.5349 303.396C31.5349 303.396 34.0082 286.495 40.1916 278.456C47.4055 268.769 71.5205 257.639 71.5205 257.639Z" fill="#EEF8F8" stroke="#545580" stroke-width="4.74749" stroke-miterlimit="10" stroke-linecap="round"/>
<path d="M14.4287 411.398C10.5126 411.192 8.24537 406.658 10.7187 403.566L63.6894 330.603C63.6894 330.603 93.7817 289.38 104.087 289.38C108.003 289.38 110.889 289.999 113.156 290.617C116.248 291.441 117.691 294.945 116.042 297.831C113.981 301.541 117.278 305.869 121.401 305.045L125.523 304.22C127.79 303.808 130.057 304.839 131.088 307.106C135.21 315.969 145.103 338.641 143.248 343.588C141.393 348.741 122.019 374.504 116.042 382.543C115.011 383.986 112.95 384.81 111.301 384.398L89.6594 380.276C87.8044 379.863 85.7433 380.688 84.7127 382.337L63.8955 411.192C62.8649 412.635 61.4221 413.46 59.5671 413.253L14.4287 411.398Z" fill="#E6E6E6"/>
<path d="M119.956 328.542L76.8782 335.962L72.3437 399.444H79.1454L122.841 368.321L119.956 328.542Z" fill="#A9CAD3" stroke="#545580" stroke-width="4.74749" stroke-miterlimit="10"/>
<path d="M79.1484 399.444L125.317 400.474L122.844 368.321" fill="#B9E9F9"/>
<path d="M79.1484 399.444L125.317 400.474L122.844 368.321" stroke="#545580" stroke-width="4.74749" stroke-miterlimit="10"/>
<path d="M6.80372 398.414C2.8876 398.207 0.620372 393.673 3.09371 390.581L56.0644 317.618C56.0644 317.618 86.1566 276.396 96.4622 276.396C100.378 276.396 103.264 277.014 105.531 277.632C108.623 278.457 110.066 281.96 108.417 284.846C106.356 288.556 109.653 292.884 113.776 292.06L117.898 291.236C120.165 290.823 122.432 291.854 123.463 294.121C127.585 302.984 137.478 325.656 135.623 330.603C133.768 335.756 132.972 348.242 130.976 358.098C128.669 369.487 110.066 367.703 108.417 367.291H82.0344C80.1794 366.878 78.1183 367.703 77.0877 369.352L56.6827 398.62C55.6521 400.062 54.2094 400.887 52.3544 400.681L6.80372 398.414Z" fill="#FCDBB9" stroke="#545580" stroke-width="4.74749" stroke-miterlimit="10"/>
<path d="M88.0103 251.25C88.0103 251.25 78.117 269.8 75.2314 287.525C72.1397 305.457 78.117 307.93 78.117 307.93L116.041 291.029L104.705 244.86L88.0103 251.25Z" fill="#B9E9F9" stroke="#545580" stroke-width="4.74749" stroke-miterlimit="10"/>
<path d="M16.5716 305.234C19.5404 291.163 33.5035 260.954 65.6048 252.687" stroke="#545580" stroke-width="5.04481" stroke-linecap="round" stroke-linejoin="round"/>
<path d="M139.783 297.841C146.69 310.454 155.759 342.474 136.775 369.648" stroke="#545580" stroke-width="5.04481" stroke-linecap="round" stroke-linejoin="round"/>
</g>
<defs>
<clipPath id="clip0">
<rect width="426" height="395" fill="white"/>
</clipPath>
</defs>
</svg>
