<svg width="224" height="75" viewBox="0 0 224 75" fill="none" xmlns="http://www.w3.org/2000/svg">
<path d="M9.42786 68V50.7629H15.4765V48.122H0.567943V50.7629H6.58814V68H9.42786ZM26.5547 63.2009C26.1003 63.9676 25.9299 64.2232 25.22 64.9331C24.5385 65.6146 23.573 65.9554 22.3235 65.9554C19.6826 65.9554 18.2343 63.996 18.1491 61.2983H29.0536V60.4748C29.0536 58.0326 28.4289 56.1016 27.151 54.6817C25.8731 53.2335 24.2545 52.5235 22.2383 52.5235C20.2221 52.5235 18.5751 53.2619 17.2688 54.7101C15.9909 56.1584 15.3378 58.061 15.3378 60.4748C15.3378 62.8885 15.9909 64.8195 17.2972 66.2678C18.6035 67.716 20.3073 68.426 22.3803 68.426C25.362 68.426 27.4634 66.8925 28.6277 64.7627L26.5547 63.2009ZM18.1775 59.1401C18.2059 58.0894 18.5751 57.1523 19.285 56.3004C19.9949 55.4201 20.9604 54.9941 22.2383 54.9941C24.8792 54.9941 26.1855 56.8399 26.2991 59.1401H18.1775ZM43.685 68V58.061C43.685 54.2842 41.3565 52.5235 37.8352 52.5235C34.5696 52.5235 32.525 54.3126 31.9854 56.9251L34.3992 57.777C34.8535 55.8744 36.0178 54.9373 37.892 54.9373C39.8514 54.9373 40.8453 55.8176 40.8453 56.9819C40.8453 57.5782 40.5614 58.0042 39.965 58.3166C39.3971 58.6289 38.2896 58.9697 36.6709 59.3957C33.0077 60.3044 31.6162 61.5538 31.6162 64.0812C31.6162 66.5801 33.3485 68.426 36.7845 68.426C38.0056 68.426 38.9711 68.1988 39.7378 67.7444C40.5046 67.2617 41.0157 66.8357 41.2145 66.4098H41.2713V68H43.685ZM37.2957 61.4119C40.3058 60.5883 40.7885 60.2192 40.9305 59.7648H40.9873V63.1441C40.9873 64.7343 39.5675 65.9838 37.0401 65.9838C35.2227 65.9838 34.314 65.3023 34.314 63.9108C34.314 62.7465 34.9387 62.065 37.2957 61.4119ZM50.6435 68V58.2598C50.6435 56.414 51.6658 55.0793 53.682 55.0793C55.6414 55.0793 56.6069 56.2152 56.6069 58.4586V68H59.2194V58.2598C59.2194 56.3004 60.3269 55.0793 62.2579 55.0793C64.2173 55.0793 65.1828 56.2152 65.1828 58.4586V68H67.7953V57.7486C67.7953 54.5681 65.7224 52.5235 62.3999 52.5235C60.5825 52.5235 59.0206 53.489 58.2255 54.6533H58.1687C57.4588 53.4323 56.0673 52.5235 54.2783 52.5235C52.7165 52.5235 51.2114 53.2903 50.5015 54.3978H50.4447V52.9495H47.9457V68H50.6435ZM86.9213 68.426C91.3512 68.426 94.2477 65.5294 94.6169 60.9007L91.5784 60.418C91.2376 63.9676 89.6758 65.7566 86.9213 65.7566C83.6556 65.7566 81.4122 63.1441 81.4122 57.8906C81.4122 52.9779 83.7408 50.3654 86.9213 50.3654C89.5906 50.3654 91.1809 51.984 91.692 55.1929L94.5885 54.7101C94.3329 52.5803 93.5094 50.8765 92.118 49.5986C90.7549 48.3208 89.0227 47.696 86.9213 47.696C84.5643 47.696 82.5765 48.5763 80.9011 50.3654C79.254 52.1544 78.4305 54.6533 78.4305 57.8906C78.4305 61.5538 79.4528 64.422 81.0431 66.0406C82.6617 67.6308 84.6495 68.426 86.9213 68.426ZM100.922 68V58.5437C100.922 56.4991 102.37 55.0793 104.5 55.0793C106.658 55.0793 107.766 56.5275 107.766 58.7993V68H110.52V58.1178C110.52 54.5965 108.362 52.5235 105.153 52.5235C103.421 52.5235 101.746 53.3471 100.979 54.4546H100.922V47.2701H98.1677V68H100.922ZM125.992 68V58.061C125.992 54.2842 123.664 52.5235 120.143 52.5235C116.877 52.5235 114.832 54.3126 114.293 56.9251L116.707 57.777C117.161 55.8744 118.325 54.9373 120.199 54.9373C122.159 54.9373 123.153 55.8176 123.153 56.9819C123.153 57.5782 122.869 58.0042 122.272 58.3166C121.704 58.6289 120.597 58.9697 118.978 59.3957C115.315 60.3044 113.924 61.5538 113.924 64.0812C113.924 66.5801 115.656 68.426 119.092 68.426C120.313 68.426 121.279 68.1988 122.045 67.7444C122.812 67.2617 123.323 66.8357 123.522 66.4098H123.579V68H125.992ZM119.603 61.4119C122.613 60.5883 123.096 60.2192 123.238 59.7648H123.295V63.1441C123.295 64.7343 121.875 65.9838 119.348 65.9838C117.53 65.9838 116.621 65.3023 116.621 63.9108C116.621 62.7465 117.246 62.065 119.603 61.4119ZM133.093 68V47.2701H130.253V68H133.093ZM140.469 68V47.2701H137.63V68H140.469ZM155.229 63.2009C154.775 63.9676 154.605 64.2232 153.895 64.9331C153.213 65.6146 152.248 65.9554 150.998 65.9554C148.357 65.9554 146.909 63.996 146.824 61.2983H157.728V60.4748C157.728 58.0326 157.104 56.1016 155.826 54.6817C154.548 53.2335 152.929 52.5235 150.913 52.5235C148.897 52.5235 147.25 53.2619 145.943 54.7101C144.666 56.1584 144.012 58.061 144.012 60.4748C144.012 62.8885 144.666 64.8195 145.972 66.2678C147.278 67.716 148.982 68.426 151.055 68.426C154.037 68.426 156.138 66.8925 157.302 64.7627L155.229 63.2009ZM146.852 59.1401C146.881 58.0894 147.25 57.1523 147.96 56.3004C148.67 55.4201 149.635 54.9941 150.913 54.9941C153.554 54.9941 154.86 56.8399 154.974 59.1401H146.852ZM164.039 68V58.5437C164.039 56.3856 165.459 55.0793 167.617 55.0793C169.747 55.0793 170.798 56.3572 170.798 58.9413V68H173.581V58.1462C173.581 54.6533 171.451 52.5235 168.157 52.5235C166.481 52.5235 164.834 53.3471 164.039 54.3978H163.983V52.9495H161.285V68H164.039ZM178.093 70.8397C178.973 73.2251 181.103 74.8153 184.17 74.8153C188.06 74.8153 190.502 72.4868 190.502 68.142V52.9495H187.833V54.3978H187.776C186.754 53.1483 185.362 52.5235 183.63 52.5235C181.756 52.5235 180.166 53.2619 178.888 54.7101C177.61 56.1584 176.985 58.061 176.985 60.4748C176.985 62.9169 177.61 64.8479 178.831 66.2962C180.081 67.716 181.699 68.426 183.659 68.426C185.448 68.426 186.811 67.8296 187.691 66.6653H187.748V68.6247C187.748 71.0385 186.385 72.3732 184.141 72.3732C182.125 72.3732 181.103 71.3509 180.308 69.5618L178.093 70.8397ZM187.748 62.7181C187.748 63.5984 187.407 64.3368 186.697 64.9899C186.016 65.6146 185.135 65.927 184.085 65.927C181.358 65.927 179.74 63.9108 179.74 60.4748C179.74 57.0387 181.358 55.0509 184.085 55.0509C185.192 55.0509 186.072 55.3917 186.726 56.1016C187.407 56.8115 187.748 57.6066 187.748 58.5153V62.7181ZM205.118 63.2009C204.664 63.9676 204.494 64.2232 203.784 64.9331C203.102 65.6146 202.137 65.9554 200.887 65.9554C198.246 65.9554 196.798 63.996 196.713 61.2983H207.617V60.4748C207.617 58.0326 206.993 56.1016 205.715 54.6817C204.437 53.2335 202.818 52.5235 200.802 52.5235C198.786 52.5235 197.139 53.2619 195.833 54.7101C194.555 56.1584 193.902 58.061 193.902 60.4748C193.902 62.8885 194.555 64.8195 195.861 66.2678C197.167 67.716 198.871 68.426 200.944 68.426C203.926 68.426 206.027 66.8925 207.191 64.7627L205.118 63.2009ZM196.741 59.1401C196.77 58.0894 197.139 57.1523 197.849 56.3004C198.559 55.4201 199.524 54.9941 200.802 54.9941C203.443 54.9941 204.749 56.8399 204.863 59.1401H196.741ZM210.038 62.9453C210.208 64.5071 210.833 65.8134 211.912 66.8641C212.991 67.9148 214.553 68.426 216.569 68.426C218.529 68.426 219.977 67.9716 220.971 67.0913C221.965 66.1826 222.448 65.1319 222.419 63.9392C222.419 62.7465 222.05 61.8094 221.34 61.0995C220.63 60.3896 219.352 59.7648 217.478 59.2253C215.604 58.6857 214.411 58.2882 213.9 58.0042C213.389 57.7202 213.133 57.2943 213.133 56.7263C213.133 55.704 214.156 54.8521 215.973 54.8521C217.79 54.8521 218.983 55.7608 219.58 57.5498L221.965 56.8967C221.255 54.2558 219.324 52.5235 215.945 52.5235C214.269 52.5235 212.963 52.9495 211.997 53.8014C211.06 54.6533 210.578 55.6472 210.578 56.8115C210.578 59.0549 211.997 60.1908 215.632 61.1847C217.365 61.6674 218.529 62.0934 219.068 62.4342C219.608 62.7465 219.892 63.2577 219.892 63.9108C219.892 65.1887 218.671 66.069 216.484 66.069C214.184 66.069 212.878 64.8479 212.594 62.3774L210.038 62.9453Z" fill="#FC4C02"/>
<path d="M24.6 16.3C25.1 17.2 25.4 18.4 25.4 19.7V19.8C25.4 21.2 25.1 22.5 24.6 23.6C24 24.7 23.3 25.7 22.2 26.4C21.2 27.2 20 27.8 18.5 28.2C17.1 28.6 15.4 28.8 13.6 28.8C10.9 28.8 8.3 28.4 6 27.7C3.7 27 1.7 25.8 0 24.3L4.8 18.6C6.2 19.7 7.8 20.5 9.4 21C11 21.5 12.6 21.7 14.2 21.7C15 21.7 15.6 21.6 16 21.4C16.4 21.2 16.5 20.9 16.5 20.6V20.5C16.5 20.1 16.2 19.8 15.7 19.5C15.2 19.2 14.2 19 12.8 18.7C11.3 18.4 9.9 18 8.5 17.6C7.1 17.2 5.9 16.7 4.9 16C3.9 15.4 3.1 14.6 2.4 13.6C1.8 12.6 1.5 11.5 1.5 10.1V10C1.5 8.7 1.7 7.5 2.2 6.5C2.7 5.4 3.4 4.5 4.4 3.6C5.4 2.8 6.5 2.2 7.9 1.7C9.3 1.2 10.9 1 12.8 1C15.4 1 17.7 1.3 19.6 1.9C21.5 2.5 23.3 3.4 24.8 4.6L20.5 10.6C19.2 9.7 17.9 9 16.5 8.6C15.1 8.2 13.8 8 12.5 8C11.8 8 11.4 8.1 11 8.3C10.7 8.5 10.5 8.8 10.5 9.1V9.2C10.5 9.6 10.7 9.9 11.2 10.1C11.7 10.4 12.6 10.6 14 10.9C15.7 11.2 17.3 11.6 18.7 12C20.1 12.4 21.3 13 22.3 13.7C23.3 14.5 24.1 15.4 24.6 16.3ZM24.9 9.2H32.7V28.3H41.6V9.2H49.4V1.7H24.9V9.2ZM128.4 0L114 28.3H122.5L128.3 16.8L134.1 28.3H142.6L128.4 0ZM88.4 0L102.8 28.3H94.3L88.5 16.8L82.7 28.3H76.9H74.2H66.8L61.8 20.7H61.7H59.9V28.3H51V1.7H64C66.4 1.7 68.3 2 69.9 2.5C71.4 3 72.7 3.8 73.6 4.7C74.4 5.5 75 6.4 75.4 7.4C75.8 8.4 76 9.6 76 11V11.1C76 13.1 75.5 14.7 74.6 16C73.7 17.3 72.4 18.4 70.8 19.2L75.4 26L88.4 0ZM67 11.7C67 10.8 66.7 10.2 66.1 9.8C65.5 9.4 64.7 9.2 63.6 9.2H59.7V14.4H63.5C64.6 14.4 65.4 14.2 66 13.7C66.7 13.2 67 12.6 67 11.7ZM114.2 1.7L108.4 13.2L102.6 1.7H94L108.4 30L122.7 1.7H114.2V1.7Z" fill="#FC4C02"/>
</svg>
